<svg xmlns="http://www.w3.org/2000/svg" xmlns:xlink="http://www.w3.org/1999/xlink"><polygon points="0,200 0,100 1,99 2,98 3,99 4,98 5,99 6,100 7,101 8,102 9,103 10,104 11,103 12,102 13,101 14,100 15,99 16,98 17,97 18,96 19,97 20,98 21,97 22,96 23,97 24,98 25,97 26,98 27,99 28,98 29,99 30,98 31,99 32,98 33,99 34,98 35,99 36,98 37,97 38,98 39,99 40,100 41,99 42,98 43,97 44,96 45,97 46,98 47,99 48,98 49,99 50,98 51,97 52,98 53,97 54,96 55,95 56,96 57,95 58,96 59,97 60,96 61,95 62,96 63,97 64,96 65,95 66,96 67,97 68,96 69,95 70,96 71,97 72,98 73,99 74,98 75,99 76,98 77,97 78,98 79,97 80,96 81,95 82,96 83,95 84,94 85,93 86,92 87,91 88,92 89,91 90,92 91,93 92,94 93,95 94,94 95,95 96,94 97,95 98,96 99,97 100,98 101,99 102,100 103,99 104,100 105,101 106,100 107,101 108,102 109,103 110,102 111,103 112,104 113,105 114,106 115,105 116,106 117,105 118,106 119,105 120,104 121,103 122,102 123,101 124,100 125,101 126,102 127,101 128,100 129,99 130,100 131,101 132,102 133,101 134,102 135,101 136,102 137,101 138,100 139,99 140,100 141,99 142,100 143,99 144,100 145,99 146,98 147,97 148,96 149,97 150,96 151,95 152,94 153,93 154,92 155,91 156,92 157,93 158,94 159,93 160,92 161,91 162,90 163,91 164,90 165,91 166,90 167,89 168,90 169,89 170,88 171,89 172,88 173,87 174,88 175,89 176,90 177,91 178,92 179,91 180,92 181,91 182,90 183,91 184,90 185,91 186,92 187,93 188,92 189,91 190,92 191,93 192,92 193,91 194,92 195,93 196,94 197,95 198,94 199,95 200,94 201,93 202,94 203,95 204,94 205,95 206,94 207,95 208,94 209,95 210,96 211,95 212,94 213,95 214,94 215,93 216,92 217,93 218,92 219,93 220,92 221,91 222,92 223,91 224,90 225,89 226,88 227,89 228,90 229,91 230,92 231,91 232,90 233,91 234,90 235,89 236,88 237,87 238,86 239,85 240,84 241,83 242,82 243,81 244,82 245,81 246,82 247,81 248,80 249,81 250,80 251,81 252,82 253,83 254,84 255,83 256,82 257,81 258,82 259,81 260,80 261,79 262,78 263,77 264,76 265,77 266,78 267,77 268,78 269,77 270,78 271,79 272,80 273,79 274,80 275,79 276,78 277,79 278,78 279,77 280,78 281,77 282,78 283,77 284,76 285,77 286,76 287,77 288,78 289,79 290,80 291,81 292,80 293,81 294,80 295,79 296,80 297,79 298,78 299,77 300,78 301,79 302,78 303,79 304,78 305,77 306,76 307,77 308,76 309,75 310,76 311,77 312,76 313,75 314,74 315,73 316,72 317,73 318,74 319,75 320,76 321,75 322,74 323,73 324,72 325,73 326,74 327,73 328,74 329,75 330,74 331,75 332,74 333,75 334,74 335,73 336,72 337,73 338,74 339,75 340,76 341,77 342,76 343,75 344,76 345,77 346,76 347,75 348,76 349,75 350,74 351,75 352,74 353,75 354,76 355,77 356,78 357,77 358,76 359,77 360,76 361,77 362,76 363,77 364,78 365,79 366,80 367,79 368,80 369,81 370,82 371,81 372,80 373,79 374,78 375,79 376,78 377,79 378,80 379,81 380,82 381,81 382,82 383,81 384,82 385,81 386,82 387,83 388,84 389,85 390,86 391,87 392,86 393,85 394,84 395,83 396,84 397,83 398,82 399,83 400,200 " style="fill:rgb(209,141,181);stroke:rgb(109,41,81)"></polygon><polygon points="0,200 0,100 1,99 2,98 3,97 4,98 5,99 6,100 7,101 8,100 9,101 10,100 11,101 12,100 13,99 14,98 15,97 16,98 17,97 18,98 19,97 20,98 21,97 22,98 23,97 24,96 25,95 26,94 27,95 28,94 29,95 30,96 31,95 32,94 33,93 34,92 35,91 36,90 37,89 38,88 39,87 40,86 41,87 42,86 43,85 44,86 45,85 46,86 47,87 48,86 49,87 50,88 51,89 52,88 53,89 54,90 55,91 56,92 57,93 58,92 59,91 60,90 61,91 62,90 63,91 64,90 65,89 66,88 67,89 68,90 69,91 70,90 71,89 72,88 73,89 74,88 75,89 76,88 77,87 78,88 79,89 80,88 81,87 82,88 83,87 84,88 85,87 86,86 87,85 88,84 89,85 90,84 91,83 92,84 93,85 94,84 95,83 96,82 97,83 98,82 99,81 100,80 101,81 102,80 103,81 104,82 105,83 106,82 107,83 108,82 109,81 110,80 111,79 112,80 113,81 114,80 115,81 116,82 117,83 118,82 119,83 120,84 121,83 122,82 123,83 124,84 125,85 126,84 127,85 128,86 129,87 130,86 131,85 132,86 133,85 134,86 135,85 136,84 137,83 138,84 139,83 140,84 141,83 142,82 143,81 144,80 145,81 146,82 147,81 148,82 149,81 150,80 151,79 152,80 153,81 154,80 155,79 156,80 157,81 158,82 159,83 160,82 161,83 162,84 163,83 164,84 165,85 166,86 167,87 168,86 169,87 170,86 171,85 172,86 173,85 174,84 175,83 176,82 177,81 178,82 179,81 180,82 181,81 182,82 183,83 184,84 185,85 186,86 187,85 188,84 189,83 190,84 191,83 192,84 193,83 194,84 195,83 196,82 197,83 198,84 199,83 200,82 201,83 202,84 203,85 204,86 205,85 206,84 207,85 208,86 209,85 210,84 211,85 212,86 213,85 214,86 215,85 216,84 217,85 218,86 219,87 220,86 221,85 222,86 223,87 224,88 225,87 226,88 227,89 228,90 229,89 230,88 231,89 232,90 233,91 234,90 235,89 236,88 237,87 238,86 239,87 240,86 241,85 242,84 243,83 244,84 245,83 246,82 247,81 248,82 249,83 250,84 251,85 252,84 253,85 254,86 255,87 256,86 257,87 258,86 259,87 260,88 261,87 262,86 263,85 264,84 265,83 266,82 267,81 268,80 269,81 270,80 271,79 272,78 273,79 274,80 275,79 276,80 277,79 278,80 279,81 280,82 281,83 282,84 283,85 284,84 285,83 286,84 287,83 288,82 289,81 290,80 291,79 292,78 293,79 294,80 295,81 296,82 297,83 298,82 299,83 300,84 301,85 302,84 303,85 304,86 305,87 306,86 307,87 308,88 309,89 310,88 311,89 312,90 313,89 314,90 315,91 316,90 317,89 318,90 319,89 320,88 321,87 322,88 323,89 324,88 325,87 326,88 327,89 328,90 329,89 330,88 331,87 332,86 333,87 334,86 335,87 336,88 337,89 338,88 339,89 340,88 341,87 342,86 343,87 344,88 345,87 346,88 347,87 348,86 349,87 350,88 351,89 352,90 353,91 354,90 355,91 356,92 357,91 358,92 359,93 360,92 361,93 362,92 363,93 364,92 365,91 366,92 367,91 368,90 369,91 370,92 371,91 372,90 373,91 374,90 375,89 376,90 377,89 378,90 379,91 380,90 381,91 382,92 383,91 384,92 385,93 386,92 387,91 388,90 389,91 390,90 391,91 392,90 393,91 394,90 395,89 396,90 397,89 398,90 399,89 400,200 " style="fill:rgb(136,177,231);stroke:rgb(36,77,131)"></polygon><polygon points="0,200 0,100 1,99 2,98 3,97 4,96 5,97 6,96 7,95 8,96 9,95 10,94 11,93 12,94 13,95 14,94 15,93 16,92 17,91 18,92 19,91 20,92 21,91 22,92 23,93 24,94 25,95 26,94 27,95 28,96 29,97 30,98 31,97 32,96 33,95 34,94 35,93 36,92 37,91 38,92 39,93 40,92 41,91 42,92 43,93 44,94 45,95 46,94 47,93 48,94 49,93 50,92 51,93 52,94 53,93 54,92 55,93 56,92 57,91 58,92 59,93 60,94 61,93 62,94 63,93 64,92 65,93 66,92 67,91 68,90 69,89 70,88 71,89 72,88 73,89 74,88 75,89 76,88 77,89 78,90 79,89 80,88 81,89 82,88 83,89 84,88 85,87 86,88 87,87 88,88 89,87 90,88 91,89 92,90 93,91 94,92 95,93 96,92 97,91 98,90 99,91 100,90 101,89 102,90 103,91 104,90 105,89 106,88 107,87 108,88 109,87 110,88 111,87 112,88 113,89 114,88 115,89 116,88 117,89 118,90 119,89 120,90 121,91 122,90 123,91 124,90 125,89 126,90 127,91 128,90 129,91 130,92 131,93 132,92 133,93 134,92 135,93 136,92 137,91 138,92 139,91 140,92 141,91 142,90 143,91 144,90 145,89 146,90 147,91 148,92 149,91 150,90 151,91 152,92 153,91 154,92 155,91 156,90 157,91 158,90 159,91 160,92 161,91 162,90 163,89 164,90 165,91 166,92 167,93 168,92 169,93 170,94 171,93 172,94 173,95 174,96 175,97 176,98 177,97 178,98 179,99 180,98 181,99 182,98 183,97 184,96 185,95 186,96 187,95 188,96 189,97 190,96 191,95 192,94 193,93 194,92 195,93 196,94 197,93 198,94 199,95 200,96 201,97 202,96 203,97 204,96 205,95 206,96 207,97 208,98 209,97 210,96 211,97 212,96 213,97 214,96 215,95 216,96 217,97 218,96 219,95 220,94 221,93 222,92 223,91 224,92 225,91 226,90 227,91 228,92 229,93 230,94 231,95 232,94 233,95 234,96 235,97 236,98 237,99 238,98 239,97 240,96 241,97 242,98 243,99 244,100 245,99 246,100 247,101 248,102 249,103 250,102 251,101 252,100 253,99 254,98 255,99 256,98 257,97 258,98 259,97 260,96 261,95 262,96 263,97 264,98 265,97 266,98 267,97 268,96 269,97 270,98 271,97 272,98 273,99 274,98 275,99 276,100 277,99 278,100 279,101 280,102 281,101 282,100 283,99 284,100 285,99 286,100 287,99 288,98 289,97 290,96 291,95 292,94 293,95 294,96 295,95 296,94 297,93 298,92 299,93 300,94 301,95 302,94 303,95 304,94 305,95 306,94 307,93 308,94 309,93 310,94 311,95 312,96 313,97 314,98 315,97 316,96 317,97 318,96 319,95 320,96 321,97 322,98 323,97 324,98 325,97 326,96 327,95 328,96 329,95 330,96 331,97 332,98 333,97 334,98 335,99 336,100 337,99 338,98 339,97 340,96 341,97 342,96 343,95 344,96 345,97 346,98 347,97 348,98 349,99 350,98 351,99 352,98 353,97 354,98 355,97 356,98 357,99 358,100 359,101 360,100 361,99 362,100 363,99 364,100 365,101 366,102 367,103 368,102 369,101 370,102 371,103 372,102 373,103 374,104 375,103 376,102 377,103 378,102 379,101 380,100 381,101 382,100 383,99 384,98 385,99 386,98 387,99 388,100 389,99 390,98 391,97 392,98 393,97 394,96 395,95 396,96 397,97 398,98 399,97 400,200 " style="fill:rgb(112,220,221);stroke:rgb(12,120,121)"></polygon><polygon points="0,200 0,100 1,101 2,102 3,101 4,102 5,103 6,104 7,105 8,106 9,107 10,108 11,109 12,108 13,107 14,106 15,105 16,104 17,105 18,104 19,105 20,106 21,105 22,104 23,105 24,106 25,107 26,108 27,107 28,108 29,107 30,106 31,105 32,106 33,107 34,106 35,105 36,106 37,107 38,108 39,107 40,108 41,109 42,108 43,109 44,108 45,107 46,106 47,105 48,106 49,107 50,108 51,107 52,106 53,107 54,108 55,107 56,108 57,109 58,108 59,107 60,108 61,107 62,108 63,107 64,108 65,109 66,110 67,111 68,110 69,109 70,110 71,111 72,112 73,113 74,112 75,113 76,112 77,113 78,112 79,111 80,110 81,109 82,108 83,107 84,106 85,105 86,106 87,105 88,106 89,105 90,106 91,107 92,106 93,105 94,104 95,105 96,104 97,103 98,104 99,105 100,104 101,103 102,104 103,105 104,106 105,105 106,104 107,103 108,102 109,103 110,104 111,105 112,104 113,105 114,104 115,103 116,104 117,103 118,102 119,101 120,100 121,101 122,102 123,101 124,100 125,99 126,100 127,101 128,100 129,99 130,100 131,99 132,98 133,97 134,98 135,97 136,98 137,97 138,96 139,95 140,94 141,95 142,94 143,95 144,96 145,97 146,98 147,99 148,100 149,101 150,102 151,103 152,104 153,105 154,104 155,105 156,104 157,105 158,104 159,105 160,104 161,103 162,104 163,105 164,106 165,107 166,108 167,107 168,106 169,107 170,106 171,107 172,108 173,109 174,110 175,109 176,110 177,109 178,110 179,111 180,110 181,109 182,110 183,111 184,110 185,111 186,112 187,111 188,112 189,113 190,112 191,111 192,112 193,111 194,112 195,111 196,112 197,113 198,114 199,113 200,112 201,111 202,110 203,109 204,108 205,109 206,108 207,109 208,108 209,107 210,106 211,105 212,106 213,105 214,104 215,103 216,104 217,103 218,104 219,105 220,106 221,107 222,106 223,105 224,106 225,105 226,104 227,105 228,104 229,103 230,104 231,105 232,106 233,107 234,106 235,105 236,106 237,105 238,104 239,103 240,104 241,103 242,104 243,105 244,106 245,107 246,106 247,107 248,108 249,109 250,108 251,107 252,106 253,105 254,106 255,107 256,106 257,105 258,106 259,105 260,106 261,107 262,106 263,107 264,106 265,105 266,104 267,105 268,104 269,105 270,106 271,107 272,108 273,109 274,110 275,111 276,110 277,111 278,110 279,111 280,110 281,109 282,108 283,109 284,108 285,107 286,108 287,107 288,108 289,107 290,108 291,109 292,110 293,111 294,110 295,111 296,110 297,111 298,112 299,113 300,112 301,113 302,112 303,111 304,110 305,111 306,110 307,109 308,108 309,107 310,108 311,107 312,108 313,107 314,106 315,107 316,106 317,107 318,106 319,105 320,106 321,105 322,106 323,105 324,104 325,103 326,102 327,103 328,104 329,103 330,104 331,105 332,104 333,103 334,102 335,103 336,104 337,103 338,104 339,105 340,104 341,105 342,106 343,105 344,106 345,107 346,106 347,105 348,106 349,105 350,104 351,105 352,104 353,105 354,104 355,103 356,102 357,101 358,102 359,103 360,102 361,103 362,102 363,101 364,100 365,99 366,100 367,99 368,100 369,101 370,100 371,99 372,100 373,101 374,100 375,99 376,98 377,99 378,98 379,97 380,98 381,97 382,96 383,95 384,96 385,97 386,98 387,99 388,100 389,99 390,100 391,101 392,100 393,101 394,102 395,101 396,100 397,101 398,102 399,101 400,200 " style="fill:rgb(35,211,177);stroke:rgb(0,111,77)"></polygon><polygon points="0,200 0,100 1,101 2,100 3,99 4,100 5,99 6,98 7,99 8,100 9,101 10,102 11,101 12,100 13,99 14,98 15,97 16,98 17,97 18,98 19,97 20,96 21,97 22,98 23,99 24,98 25,99 26,100 27,99 28,98 29,97 30,98 31,99 32,100 33,101 34,102 35,101 36,100 37,99 38,100 39,99 40,100 41,101 42,100 43,101 44,102 45,103 46,102 47,101 48,102 49,101 50,102 51,103 52,104 53,103 54,102 55,101 56,100 57,99 58,98 59,97 60,96 61,97 62,98 63,99 64,100 65,99 66,98 67,99 68,98 69,97 70,98 71,97 72,96 73,97 74,96 75,97 76,98 77,99 78,100 79,99 80,98 81,97 82,96 83,95 84,96 85,95 86,94 87,95 88,96 89,95 90,94 91,93 92,92 93,91 94,90 95,91 96,90 97,89 98,88 99,89 100,90 101,91 102,92 103,93 104,94 105,95 106,94 107,95 108,94 109,95 110,96 111,95 112,96 113,97 114,96 115,97 116,96 117,95 118,96 119,95 120,96 121,97 122,98 123,97 124,98 125,97 126,98 127,97 128,96 129,95 130,94 131,93 132,92 133,93 134,92 135,93 136,94 137,95 138,94 139,95 140,96 141,97 142,98 143,97 144,98 145,99 146,100 147,101 148,100 149,101 150,102 151,101 152,102 153,101 154,102 155,101 156,102 157,103 158,104 159,105 160,106 161,107 162,108 163,109 164,108 165,109 166,108 167,109 168,110 169,109 170,108 171,109 172,108 173,109 174,110 175,111 176,110 177,111 178,110 179,109 180,108 181,109 182,110 183,109 184,108 185,109 186,108 187,107 188,106 189,105 190,106 191,107 192,106 193,107 194,106 195,107 196,108 197,107 198,108 199,107 200,108 201,109 202,110 203,109 204,110 205,109 206,110 207,111 208,110 209,109 210,108 211,109 212,108 213,109 214,108 215,107 216,106 217,107 218,108 219,107 220,108 221,109 222,110 223,111 224,110 225,111 226,112 227,111 228,112 229,111 230,112 231,111 232,112 233,113 234,112 235,113 236,112 237,113 238,114 239,115 240,114 241,113 242,114 243,113 244,112 245,113 246,112 247,111 248,110 249,111 250,112 251,113 252,114 253,113 254,112 255,111 256,112 257,113 258,112 259,111 260,112 261,113 262,114 263,113 264,112 265,111 266,112 267,111 268,112 269,111 270,112 271,111 272,112 273,113 274,112 275,113 276,112 277,113 278,114 279,115 280,114 281,113 282,112 283,113 284,112 285,113 286,112 287,113 288,112 289,113 290,112 291,111 292,110 293,109 294,108 295,109 296,108 297,107 298,106 299,107 300,106 301,107 302,108 303,107 304,108 305,109 306,110 307,111 308,110 309,109 310,108 311,107 312,106 313,107 314,108 315,109 316,108 317,107 318,108 319,107 320,106 321,105 322,104 323,103 324,102 325,103 326,102 327,103 328,102 329,103 330,102 331,101 332,100 333,101 334,100 335,101 336,100 337,101 338,100 339,101 340,100 341,101 342,100 343,101 344,100 345,101 346,102 347,101 348,100 349,101 350,100 351,99 352,100 353,101 354,100 355,101 356,100 357,99 358,98 359,97 360,98 361,97 362,96 363,97 364,98 365,99 366,98 367,97 368,98 369,97 370,98 371,97 372,98 373,97 374,98 375,97 376,96 377,97 378,96 379,95 380,94 381,95 382,94 383,95 384,96 385,95 386,94 387,93 388,92 389,93 390,94 391,93 392,94 393,93 394,92 395,91 396,90 397,91 398,90 399,91 400,200 " style="fill:rgb(172,112,215);stroke:rgb(72,12,115)"></polygon><polygon points="0,200 0,100 1,101 2,102 3,101 4,102 5,101 6,102 7,103 8,102 9,103 10,104 11,103 12,104 13,105 14,106 15,105 16,104 17,105 18,104 19,103 20,104 21,103 22,104 23,105 24,106 25,107 26,108 27,107 28,106 29,107 30,108 31,109 32,110 33,111 34,110 35,111 36,112 37,113 38,114 39,113 40,112 41,113 42,114 43,115 44,116 45,117 46,116 47,117 48,118 49,117 50,118 51,119 52,120 53,121 54,122 55,121 56,120 57,121 58,122 59,121 60,122 61,123 62,124 63,123 64,124 65,123 66,124 67,125 68,124 69,123 70,124 71,123 72,122 73,123 74,122 75,123 76,124 77,125 78,126 79,125 80,126 81,125 82,126 83,127 84,128 85,127 86,128 87,127 88,128 89,127 90,126 91,125 92,126 93,125 94,126 95,125 96,124 97,123 98,122 99,121 100,120 101,119 102,118 103,117 104,118 105,117 106,116 107,115 108,116 109,115 110,114 111,115 112,114 113,113 114,114 115,113 116,112 117,111 118,112 119,111 120,110 121,111 122,112 123,113 124,112 125,111 126,110 127,111 128,112 129,113 130,112 131,113 132,112 133,111 134,110 135,111 136,112 137,111 138,110 139,111 140,112 141,111 142,112 143,111 144,112 145,113 146,112 147,111 148,110 149,109 150,108 151,109 152,110 153,111 154,112 155,113 156,114 157,113 158,112 159,113 160,114 161,113 162,112 163,113 164,114 165,113 166,112 167,111 168,112 169,111 170,110 171,111 172,110 173,111 174,110 175,109 176,110 177,111 178,110 179,109 180,108 181,109 182,108 183,109 184,110 185,109 186,110 187,109 188,108 189,109 190,108 191,109 192,110 193,109 194,108 195,107 196,108 197,107 198,108 199,109 200,108 201,107 202,106 203,105 204,106 205,105 206,104 207,103 208,102 209,103 210,104 211,103 212,102 213,101 214,102 215,101 216,100 217,99 218,100 219,101 220,102 221,103 222,102 223,101 224,102 225,103 226,102 227,103 228,102 229,103 230,104 231,103 232,102 233,101 234,102 235,101 236,100 237,99 238,98 239,99 240,98 241,97 242,98 243,97 244,96 245,97 246,96 247,95 248,96 249,97 250,98 251,99 252,98 253,99 254,98 255,99 256,98 257,99 258,100 259,99 260,100 261,101 262,100 263,99 264,100 265,101 266,100 267,99 268,100 269,101 270,100 271,99 272,98 273,97 274,98 275,97 276,96 277,95 278,94 279,93 280,94 281,93 282,92 283,91 284,92 285,93 286,92 287,91 288,90 289,91 290,90 291,91 292,92 293,93 294,94 295,93 296,94 297,93 298,92 299,91 300,92 301,93 302,92 303,91 304,90 305,91 306,90 307,89 308,88 309,87 310,88 311,89 312,88 313,87 314,86 315,85 316,84 317,85 318,84 319,85 320,86 321,85 322,86 323,87 324,86 325,87 326,86 327,85 328,86 329,85 330,84 331,83 332,84 333,85 334,86 335,85 336,84 337,85 338,84 339,83 340,82 341,81 342,82 343,83 344,82 345,81 346,80 347,79 348,78 349,79 350,78 351,79 352,78 353,77 354,76 355,77 356,76 357,77 358,78 359,77 360,76 361,75 362,76 363,75 364,76 365,77 366,76 367,75 368,74 369,75 370,74 371,75 372,76 373,75 374,76 375,77 376,76 377,75 378,76 379,77 380,78 381,79 382,80 383,79 384,78 385,79 386,78 387,79 388,78 389,79 390,78 391,79 392,78 393,79 394,78 395,77 396,78 397,77 398,78 399,79 400,200 " style="fill:rgb(30,100,87);stroke:rgb(0,0,0)"></polygon><polygon points="0,200 0,100 1,99 2,100 3,101 4,100 5,101 6,102 7,101 8,102 9,103 10,104 11,105 12,104 13,103 14,104 15,103 16,104 17,105 18,104 19,103 20,102 21,103 22,102 23,101 24,102 25,101 26,102 27,101 28,100 29,99 30,100 31,99 32,100 33,99 34,100 35,101 36,102 37,101 38,100 39,101 40,100 41,99 42,100 43,101 44,100 45,99 46,100 47,101 48,102 49,101 50,102 51,101 52,102 53,103 54,104 55,105 56,106 57,105 58,104 59,105 60,104 61,103 62,102 63,103 64,102 65,103 66,104 67,103 68,104 69,105 70,106 71,105 72,104 73,105 74,104 75,105 76,106 77,105 78,106 79,105 80,104 81,103 82,102 83,101 84,102 85,101 86,102 87,101 88,102 89,103 90,104 91,105 92,104 93,103 94,102 95,103 96,104 97,103 98,104 99,105 100,106 101,105 102,106 103,107 104,108 105,109 106,108 107,107 108,108 109,109 110,110 111,109 112,108 113,109 114,108 115,107 116,106 117,105 118,106 119,107 120,106 121,105 122,106 123,107 124,106 125,105 126,106 127,105 128,106 129,105 130,106 131,107 132,106 133,107 134,106 135,105 136,104 137,103 138,104 139,103 140,104 141,103 142,102 143,101 144,100 145,99 146,100 147,99 148,98 149,97 150,98 151,99 152,100 153,99 154,98 155,97 156,96 157,97 158,96 159,97 160,96 161,97 162,96 163,95 164,94 165,93 166,92 167,93 168,92 169,93 170,92 171,91 172,92 173,93 174,92 175,93 176,94 177,93 178,92 179,91 180,90 181,91 182,92 183,93 184,92 185,93 186,92 187,91 188,90 189,91 190,90 191,89 192,88 193,89 194,88 195,87 196,88 197,89 198,88 199,89 200,90 201,89 202,88 203,87 204,86 205,85 206,86 207,85 208,86 209,87 210,86 211,87 212,88 213,89 214,90 215,91 216,92 217,93 218,92 219,93 220,92 221,93 222,94 223,95 224,94 225,95 226,94 227,93 228,92 229,91 230,92 231,91 232,90 233,91 234,90 235,89 236,90 237,89 238,88 239,89 240,88 241,89 242,90 243,91 244,92 245,93 246,94 247,95 248,96 249,97 250,98 251,97 252,98 253,99 254,100 255,99 256,100 257,99 258,98 259,99 260,100 261,99 262,100 263,101 264,102 265,101 266,100 267,101 268,100 269,99 270,98 271,97 272,96 273,95 274,96 275,97 276,96 277,97 278,98 279,97 280,98 281,97 282,98 283,99 284,100 285,101 286,102 287,103 288,104 289,103 290,102 291,103 292,102 293,101 294,100 295,101 296,100 297,101 298,100 299,99 300,100 301,99 302,100 303,99 304,98 305,99 306,100 307,101 308,102 309,103 310,102 311,103 312,104 313,103 314,102 315,101 316,102 317,103 318,104 319,103 320,102 321,101 322,102 323,101 324,102 325,101 326,102 327,101 328,102 329,101 330,102 331,103 332,104 333,103 334,102 335,103 336,104 337,105 338,104 339,105 340,106 341,105 342,104 343,105 344,106 345,107 346,108 347,109 348,110 349,111 350,110 351,109 352,110 353,109 354,108 355,109 356,108 357,107 358,108 359,107 360,106 361,105 362,106 363,105 364,106 365,107 366,108 367,107 368,108 369,109 370,108 371,109 372,108 373,109 374,108 375,109 376,108 377,107 378,108 379,107 380,108 381,109 382,110 383,111 384,112 385,111 386,110 387,111 388,112 389,113 390,112 391,113 392,114 393,115 394,116 395,117 396,118 397,117 398,116 399,115 400,200 " style="fill:rgb(137,11,159);stroke:rgb(37,0,59)"></polygon><polygon points="0,200 0,100 1,99 2,98 3,97 4,96 5,95 6,96 7,97 8,96 9,97 10,98 11,97 12,98 13,99 14,98 15,99 16,100 17,99 18,98 19,99 20,100 21,99 22,98 23,99 24,100 25,99 26,100 27,99 28,100 29,99 30,100 31,99 32,100 33,99 34,100 35,99 36,100 37,101 38,102 39,103 40,102 41,103 42,104 43,103 44,102 45,103 46,102 47,101 48,102 49,101 50,100 51,99 52,100 53,99 54,100 55,99 56,98 57,97 58,98 59,97 60,96 61,95 62,94 63,95 64,94 65,93 66,92 67,93 68,94 69,93 70,92 71,93 72,92 73,91 74,90 75,89 76,90 77,89 78,88 79,89 80,88 81,89 82,90 83,89 84,88 85,89 86,90 87,91 88,90 89,91 90,92 91,93 92,92 93,93 94,92 95,93 96,94 97,93 98,94 99,95 100,96 101,97 102,98 103,97 104,96 105,97 106,96 107,97 108,96 109,97 110,98 111,99 112,98 113,99 114,98 115,97 116,96 117,97 118,96 119,95 120,94 121,93 122,92 123,91 124,90 125,91 126,92 127,93 128,92 129,91 130,92 131,91 132,92 133,93 134,94 135,93 136,92 137,91 138,90 139,91 140,90 141,91 142,92 143,91 144,92 145,91 146,90 147,91 148,90 149,91 150,90 151,91 152,90 153,89 154,88 155,89 156,88 157,89 158,88 159,87 160,86 161,87 162,88 163,89 164,90 165,91 166,90 167,89 168,88 169,89 170,88 171,87 172,86 173,85 174,84 175,83 176,82 177,83 178,84 179,85 180,86 181,85 182,84 183,83 184,82 185,81 186,82 187,81 188,82 189,81 190,80 191,79 192,80 193,81 194,82 195,83 196,84 197,85 198,84 199,83 200,82 201,83 202,82 203,83 204,82 205,83 206,84 207,83 208,84 209,85 210,86 211,87 212,86 213,85 214,86 215,87 216,88 217,87 218,86 219,87 220,86 221,85 222,86 223,87 224,88 225,89 226,90 227,89 228,90 229,91 230,90 231,89 232,88 233,87 234,88 235,89 236,88 237,87 238,86 239,87 240,86 241,85 242,84 243,85 244,84 245,83 246,84 247,83 248,82 249,83 250,84 251,83 252,82 253,83 254,82 255,83 256,84 257,85 258,84 259,83 260,84 261,83 262,82 263,83 264,84 265,85 266,84 267,83 268,82 269,83 270,82 271,83 272,84 273,83 274,84 275,85 276,84 277,85 278,84 279,85 280,86 281,87 282,88 283,89 284,88 285,87 286,86 287,87 288,86 289,87 290,88 291,87 292,86 293,87 294,86 295,85 296,86 297,87 298,86 299,87 300,86 301,85 302,84 303,83 304,82 305,81 306,82 307,83 308,82 309,83 310,84 311,85 312,84 313,83 314,84 315,85 316,86 317,87 318,88 319,87 320,86 321,87 322,86 323,85 324,86 325,87 326,86 327,85 328,86 329,85 330,86 331,85 332,84 333,85 334,84 335,83 336,84 337,85 338,84 339,85 340,86 341,85 342,86 343,87 344,86 345,87 346,86 347,85 348,86 349,87 350,88 351,87 352,88 353,89 354,88 355,89 356,88 357,89 358,88 359,89 360,90 361,89 362,90 363,91 364,92 365,91 366,90 367,89 368,90 369,91 370,92 371,93 372,94 373,95 374,94 375,95 376,94 377,95 378,96 379,97 380,98 381,99 382,98 383,99 384,98 385,99 386,100 387,99 388,100 389,99 390,98 391,99 392,100 393,99 394,98 395,99 396,100 397,99 398,98 399,99 400,200 " style="fill:rgb(243,184,251);stroke:rgb(143,84,151)"></polygon><polygon points="0,200 0,100 1,99 2,100 3,99 4,98 5,99 6,98 7,97 8,98 9,99 10,98 11,97 12,96 13,97 14,96 15,97 16,98 17,99 18,98 19,99 20,100 21,101 22,102 23,101 24,102 25,101 26,100 27,101 28,102 29,101 30,100 31,101 32,102 33,101 34,100 35,99 36,100 37,101 38,100 39,99 40,100 41,101 42,100 43,101 44,100 45,101 46,100 47,101 48,100 49,101 50,102 51,103 52,104 53,105 54,106 55,107 56,106 57,105 58,106 59,107 60,108 61,107 62,108 63,109 64,108 65,109 66,110 67,111 68,110 69,111 70,110 71,111 72,112 73,111 74,112 75,111 76,110 77,109 78,110 79,111 80,110 81,111 82,112 83,113 84,112 85,111 86,112 87,113 88,114 89,113 90,112 91,111 92,110 93,109 94,108 95,107 96,108 97,109 98,108 99,107 100,108 101,109 102,110 103,109 104,110 105,111 106,110 107,111 108,110 109,109 110,108 111,109 112,110 113,109 114,108 115,107 116,106 117,105 118,104 119,103 120,102 121,103 122,102 123,101 124,102 125,101 126,100 127,101 128,100 129,101 130,102 131,103 132,102 133,101 134,100 135,101 136,102 137,101 138,102 139,101 140,100 141,101 142,102 143,101 144,102 145,101 146,102 147,101 148,100 149,99 150,100 151,99 152,98 153,97 154,98 155,97 156,96 157,95 158,96 159,97 160,96 161,97 162,98 163,97 164,98 165,97 166,96 167,95 168,96 169,97 170,96 171,97 172,96 173,95 174,94 175,93 176,94 177,95 178,96 179,95 180,96 181,97 182,96 183,95 184,94 185,95 186,94 187,95 188,96 189,95 190,94 191,93 192,94 193,95 194,96 195,95 196,94 197,93 198,94 199,95 200,94 201,93 202,92 203,91 204,90 205,89 206,88 207,87 208,86 209,85 210,84 211,83 212,82 213,83 214,84 215,85 216,86 217,85 218,84 219,85 220,86 221,85 222,86 223,85 224,84 225,83 226,84 227,83 228,82 229,83 230,82 231,81 232,82 233,83 234,82 235,83 236,82 237,83 238,82 239,83 240,82 241,83 242,82 243,81 244,82 245,83 246,84 247,85 248,86 249,85 250,86 251,85 252,86 253,85 254,84 255,85 256,84 257,85 258,86 259,85 260,86 261,87 262,86 263,87 264,86 265,85 266,84 267,85 268,86 269,87 270,86 271,87 272,88 273,87 274,88 275,87 276,86 277,87 278,88 279,87 280,86 281,85 282,86 283,87 284,88 285,89 286,90 287,89 288,90 289,89 290,88 291,87 292,88 293,87 294,88 295,89 296,90 297,89 298,88 299,87 300,88 301,89 302,88 303,87 304,86 305,87 306,86 307,85 308,84 309,85 310,86 311,87 312,86 313,85 314,86 315,85 316,86 317,87 318,86 319,85 320,86 321,87 322,88 323,89 324,90 325,91 326,92 327,91 328,92 329,93 330,92 331,91 332,92 333,91 334,92 335,93 336,92 337,91 338,90 339,89 340,90 341,91 342,92 343,93 344,92 345,91 346,92 347,93 348,92 349,93 350,94 351,95 352,96 353,95 354,94 355,93 356,92 357,93 358,92 359,93 360,94 361,93 362,92 363,91 364,92 365,91 366,92 367,93 368,94 369,95 370,96 371,97 372,96 373,97 374,96 375,95 376,96 377,97 378,98 379,97 380,98 381,99 382,100 383,99 384,100 385,101 386,102 387,103 388,102 389,101 390,102 391,103 392,104 393,105 394,104 395,105 396,106 397,107 398,108 399,107 400,200 " style="fill:rgb(158,143,148);stroke:rgb(58,43,48)"></polygon><polygon points="0,200 0,100 1,101 2,100 3,101 4,100 5,101 6,102 7,101 8,102 9,101 10,102 11,103 12,102 13,103 14,102 15,103 16,102 17,103 18,102 19,103 20,102 21,103 22,104 23,105 24,104 25,103 26,102 27,103 28,102 29,101 30,102 31,103 32,102 33,101 34,100 35,101 36,102 37,103 38,102 39,103 40,104 41,103 42,102 43,103 44,102 45,103 46,102 47,101 48,100 49,101 50,100 51,99 52,100 53,101 54,100 55,101 56,100 57,99 58,98 59,97 60,98 61,99 62,100 63,101 64,100 65,101 66,102 67,103 68,102 69,103 70,102 71,103 72,104 73,103 74,104 75,105 76,106 77,107 78,106 79,105 80,104 81,105 82,106 83,105 84,104 85,103 86,104 87,105 88,106 89,107 90,108 91,107 92,108 93,109 94,110 95,111 96,112 97,111 98,112 99,113 100,112 101,111 102,112 103,113 104,114 105,115 106,114 107,115 108,116 109,117 110,116 111,117 112,118 113,119 114,118 115,117 116,118 117,119 118,120 119,119 120,120 121,119 122,120 123,119 124,118 125,117 126,118 127,117 128,116 129,117 130,118 131,119 132,118 133,117 134,116 135,117 136,116 137,117 138,118 139,117 140,118 141,117 142,116 143,115 144,114 145,113 146,112 147,113 148,114 149,115 150,114 151,113 152,114 153,113 154,112 155,111 156,110 157,111 158,112 159,111 160,110 161,109 162,110 163,111 164,110 165,109 166,108 167,109 168,108 169,109 170,110 171,109 172,108 173,109 174,110 175,111 176,110 177,109 178,110 179,111 180,110 181,109 182,110 183,109 184,108 185,109 186,110 187,109 188,108 189,109 190,110 191,111 192,112 193,113 194,114 195,115 196,114 197,115 198,116 199,115 200,114 201,115 202,114 203,113 204,112 205,111 206,110 207,109 208,108 209,107 210,106 211,105 212,104 213,103 214,102 215,103 216,102 217,103 218,102 219,103 220,102 221,101 222,100 223,99 224,98 225,99 226,98 227,97 228,98 229,99 230,100 231,101 232,100 233,101 234,100 235,101 236,102 237,103 238,104 239,105 240,106 241,105 242,104 243,105 244,104 245,103 246,104 247,105 248,106 249,107 250,106 251,105 252,106 253,107 254,106 255,107 256,108 257,109 258,110 259,109 260,110 261,109 262,110 263,109 264,108 265,109 266,108 267,109 268,108 269,109 270,108 271,107 272,106 273,105 274,106 275,107 276,108 277,109 278,110 279,109 280,108 281,109 282,108 283,109 284,108 285,107 286,106 287,105 288,104 289,105 290,104 291,105 292,106 293,107 294,106 295,107 296,106 297,107 298,108 299,107 300,106 301,107 302,106 303,107 304,108 305,107 306,108 307,107 308,108 309,109 310,110 311,109 312,108 313,107 314,108 315,107 316,106 317,107 318,106 319,107 320,108 321,107 322,108 323,107 324,106 325,105 326,104 327,105 328,104 329,105 330,106 331,107 332,108 333,109 334,108 335,109 336,108 337,107 338,108 339,107 340,108 341,109 342,108 343,107 344,108 345,109 346,108 347,109 348,108 349,107 350,106 351,105 352,104 353,103 354,104 355,103 356,102 357,101 358,102 359,103 360,102 361,101 362,102 363,101 364,100 365,101 366,100 367,99 368,98 369,97 370,98 371,97 372,96 373,97 374,96 375,97 376,98 377,99 378,98 379,97 380,98 381,99 382,98 383,99 384,100 385,101 386,102 387,103 388,104 389,103 390,104 391,105 392,106 393,105 394,106 395,107 396,108 397,107 398,106 399,105 400,200 " style="fill:rgb(185,185,134);stroke:rgb(85,85,34)"></polygon></svg>