<svg xmlns="http://www.w3.org/2000/svg" xmlns:xlink="http://www.w3.org/1999/xlink"><polygon points="0,200 0,100 1,101 2,100 3,99 4,98 5,99 6,98 7,99 8,100 9,99 10,100 11,101 12,100 13,101 14,102 15,101 16,102 17,103 18,104 19,105 20,104 21,103 22,102 23,101 24,102 25,103 26,102 27,101 28,100 29,99 30,100 31,101 32,100 33,99 34,98 35,97 36,98 37,97 38,96 39,95 40,96 41,97 42,96 43,97 44,96 45,95 46,94 47,95 48,94 49,95 50,94 51,95 52,96 53,95 54,96 55,97 56,98 57,97 58,98 59,99 60,100 61,99 62,98 63,97 64,96 65,97 66,96 67,97 68,98 69,99 70,100 71,101 72,100 73,99 74,98 75,97 76,98 77,97 78,98 79,99 80,98 81,97 82,96 83,97 84,96 85,95 86,94 87,93 88,92 89,91 90,92 91,93 92,92 93,91 94,90 95,91 96,90 97,91 98,90 99,91 100,92 101,93 102,94 103,93 104,92 105,91 106,90 107,91 108,92 109,93 110,94 111,93 112,94 113,93 114,92 115,93 116,94 117,93 118,92 119,93 120,92 121,91 122,90 123,89 124,88 125,87 126,86 127,87 128,88 129,87 130,88 131,87 132,88 133,87 134,88 135,87 136,86 137,85 138,86 139,85 140,86 141,85 142,86 143,85 144,86 145,85 146,84 147,83 148,82 149,81 150,82 151,81 152,82 153,83 154,84 155,85 156,86 157,87 158,88 159,87 160,88 161,87 162,86 163,87 164,88 165,89 166,90 167,89 168,90 169,89 170,90 171,91 172,90 173,89 174,90 175,89 176,90 177,91 178,90 179,91 180,92 181,93 182,94 183,93 184,94 185,95 186,96 187,95 188,96 189,95 190,96 191,95 192,94 193,95 194,96 195,97 196,96 197,97 198,98 199,97 200,98 201,97 202,96 203,95 204,94 205,95 206,96 207,97 208,96 209,97 210,96 211,95 212,94 213,95 214,96 215,97 216,98 217,99 218,98 219,99 220,100 221,101 222,102 223,101 224,102 225,101 226,100 227,99 228,100 229,99 230,100 231,99 232,98 233,99 234,100 235,101 236,102 237,103 238,102 239,103 240,102 241,103 242,102 243,103 244,102 245,103 246,102 247,101 248,100 249,99 250,98 251,97 252,96 253,95 254,96 255,97 256,98 257,97 258,96 259,97 260,98 261,97 262,98 263,99 264,100 265,99 266,100 267,99 268,98 269,99 270,98 271,99 272,98 273,99 274,98 275,99 276,98 277,97 278,96 279,95 280,94 281,93 282,92 283,93 284,92 285,91 286,92 287,93 288,92 289,91 290,90 291,91 292,90 293,91 294,92 295,91 296,92 297,93 298,92 299,91 300,92 301,93 302,92 303,93 304,92 305,93 306,94 307,95 308,94 309,93 310,92 311,93 312,92 313,93 314,94 315,93 316,94 317,93 318,94 319,93 320,92 321,91 322,90 323,89 324,88 325,87 326,86 327,85 328,84 329,83 330,84 331,83 332,82 333,83 334,84 335,85 336,84 337,83 338,84 339,85 340,84 341,85 342,84 343,85 344,84 345,85 346,86 347,85 348,84 349,83 350,84 351,85 352,86 353,85 354,84 355,83 356,84 357,83 358,82 359,81 360,80 361,79 362,78 363,77 364,78 365,79 366,80 367,81 368,82 369,83 370,84 371,83 372,84 373,83 374,82 375,81 376,80 377,81 378,80 379,81 380,80 381,79 382,80 383,81 384,80 385,81 386,82 387,83 388,82 389,83 390,82 391,83 392,82 393,81 394,82 395,81 396,80 397,81 398,80 399,81 400,200 " style="fill:rgb(209,15,70);stroke:rgb(109,0,0)"></polygon><polygon points="0,200 0,100 1,101 2,100 3,101 4,102 5,101 6,100 7,101 8,102 9,103 10,104 11,103 12,102 13,101 14,102 15,101 16,100 17,99 18,98 19,99 20,98 21,99 22,98 23,97 24,98 25,99 26,100 27,101 28,102 29,101 30,100 31,101 32,102 33,103 34,104 35,103 36,104 37,103 38,102 39,101 40,102 41,103 42,102 43,101 44,100 45,99 46,100 47,101 48,100 49,101 50,102 51,103 52,104 53,105 54,104 55,105 56,106 57,107 58,106 59,107 60,106 61,105 62,104 63,105 64,104 65,103 66,104 67,105 68,106 69,105 70,104 71,105 72,104 73,105 74,104 75,105 76,104 77,103 78,102 79,101 80,102 81,101 82,100 83,99 84,100 85,99 86,100 87,99 88,100 89,99 90,98 91,97 92,96 93,97 94,98 95,99 96,98 97,97 98,98 99,97 100,98 101,99 102,100 103,99 104,98 105,97 106,96 107,95 108,96 109,95 110,94 111,93 112,92 113,93 114,92 115,91 116,90 117,91 118,90 119,89 120,88 121,89 122,88 123,87 124,86 125,85 126,84 127,85 128,86 129,87 130,86 131,85 132,86 133,87 134,88 135,89 136,88 137,87 138,88 139,87 140,88 141,89 142,90 143,89 144,88 145,87 146,86 147,85 148,84 149,83 150,84 151,85 152,84 153,83 154,84 155,83 156,82 157,83 158,82 159,81 160,82 161,81 162,80 163,79 164,78 165,79 166,78 167,77 168,76 169,75 170,74 171,75 172,74 173,75 174,74 175,73 176,74 177,73 178,74 179,75 180,74 181,73 182,72 183,73 184,74 185,75 186,76 187,77 188,76 189,77 190,78 191,77 192,78 193,77 194,78 195,79 196,78 197,79 198,78 199,77 200,76 201,75 202,76 203,75 204,76 205,77 206,76 207,75 208,76 209,75 210,76 211,75 212,76 213,75 214,74 215,75 216,74 217,73 218,72 219,73 220,72 221,71 222,72 223,71 224,70 225,71 226,70 227,69 228,68 229,69 230,68 231,67 232,66 233,65 234,66 235,65 236,66 237,65 238,66 239,67 240,68 241,69 242,68 243,69 244,70 245,69 246,68 247,67 248,66 249,67 250,66 251,65 252,64 253,63 254,64 255,65 256,64 257,65 258,66 259,65 260,66 261,67 262,68 263,67 264,66 265,67 266,66 267,67 268,66 269,65 270,66 271,65 272,66 273,67 274,66 275,65 276,64 277,63 278,62 279,61 280,62 281,61 282,60 283,61 284,60 285,59 286,58 287,59 288,60 289,61 290,60 291,59 292,60 293,61 294,62 295,61 296,60 297,59 298,58 299,59 300,58 301,59 302,58 303,59 304,60 305,59 306,58 307,57 308,58 309,59 310,58 311,57 312,58 313,57 314,58 315,59 316,60 317,61 318,60 319,59 320,58 321,57 322,58 323,57 324,56 325,57 326,58 327,59 328,60 329,61 330,60 331,59 332,58 333,57 334,58 335,57 336,58 337,57 338,58 339,59 340,60 341,59 342,60 343,59 344,60 345,61 346,60 347,59 348,60 349,61 350,60 351,59 352,58 353,57 354,56 355,57 356,56 357,55 358,54 359,55 360,56 361,55 362,56 363,57 364,58 365,59 366,60 367,59 368,60 369,59 370,60 371,59 372,58 373,59 374,58 375,57 376,58 377,57 378,58 379,57 380,56 381,55 382,54 383,53 384,54 385,55 386,56 387,57 388,56 389,55 390,54 391,55 392,54 393,53 394,54 395,55 396,56 397,55 398,56 399,55 400,200 " style="fill:rgb(67,193,208);stroke:rgb(0,93,108)"></polygon><polygon points="0,200 0,100 1,101 2,100 3,101 4,102 5,103 6,102 7,101 8,100 9,101 10,102 11,101 12,102 13,103 14,102 15,103 16,102 17,103 18,102 19,103 20,102 21,103 22,102 23,101 24,100 25,99 26,100 27,101 28,100 29,99 30,100 31,101 32,102 33,101 34,100 35,99 36,98 37,99 38,100 39,99 40,98 41,99 42,100 43,101 44,102 45,103 46,104 47,105 48,106 49,105 50,104 51,105 52,104 53,105 54,104 55,105 56,106 57,107 58,106 59,107 60,106 61,105 62,106 63,107 64,108 65,109 66,108 67,107 68,108 69,109 70,110 71,111 72,112 73,111 74,110 75,109 76,110 77,109 78,108 79,109 80,110 81,111 82,110 83,111 84,112 85,111 86,110 87,111 88,110 89,109 90,110 91,109 92,110 93,109 94,110 95,111 96,110 97,111 98,112 99,111 100,110 101,111 102,110 103,109 104,108 105,109 106,110 107,109 108,108 109,107 110,108 111,109 112,108 113,107 114,106 115,105 116,104 117,105 118,106 119,105 120,106 121,105 122,106 123,105 124,104 125,103 126,104 127,105 128,106 129,107 130,106 131,107 132,108 133,107 134,108 135,109 136,110 137,111 138,110 139,109 140,108 141,109 142,108 143,107 144,106 145,105 146,104 147,103 148,104 149,103 150,102 151,101 152,100 153,99 154,98 155,97 156,98 157,97 158,96 159,97 160,98 161,99 162,98 163,97 164,96 165,97 166,98 167,97 168,96 169,95 170,96 171,97 172,98 173,97 174,98 175,99 176,98 177,99 178,98 179,97 180,98 181,99 182,100 183,99 184,100 185,99 186,100 187,101 188,100 189,99 190,100 191,99 192,100 193,101 194,100 195,99 196,100 197,99 198,98 199,99 200,100 201,99 202,100 203,99 204,100 205,99 206,100 207,99 208,100 209,99 210,100 211,101 212,102 213,103 214,102 215,103 216,102 217,101 218,102 219,103 220,102 221,101 222,102 223,101 224,102 225,103 226,102 227,101 228,102 229,103 230,104 231,103 232,102 233,103 234,104 235,105 236,106 237,107 238,108 239,109 240,110 241,109 242,110 243,111 244,110 245,111 246,110 247,111 248,110 249,109 250,108 251,107 252,106 253,105 254,104 255,105 256,106 257,107 258,106 259,105 260,104 261,105 262,106 263,107 264,108 265,107 266,106 267,107 268,106 269,107 270,108 271,109 272,108 273,109 274,108 275,107 276,108 277,107 278,106 279,105 280,106 281,105 282,104 283,105 284,104 285,105 286,104 287,103 288,102 289,103 290,104 291,103 292,102 293,101 294,100 295,101 296,100 297,99 298,100 299,99 300,98 301,99 302,100 303,99 304,100 305,101 306,102 307,101 308,102 309,101 310,102 311,103 312,104 313,103 314,102 315,101 316,100 317,101 318,102 319,101 320,100 321,99 322,98 323,99 324,98 325,99 326,98 327,97 328,96 329,97 330,98 331,97 332,96 333,95 334,94 335,95 336,96 337,95 338,96 339,95 340,96 341,97 342,96 343,97 344,98 345,97 346,96 347,95 348,96 349,97 350,96 351,97 352,96 353,95 354,96 355,95 356,96 357,97 358,96 359,97 360,96 361,95 362,96 363,95 364,96 365,95 366,94 367,95 368,94 369,95 370,94 371,95 372,96 373,97 374,96 375,95 376,94 377,95 378,96 379,95 380,94 381,95 382,94 383,93 384,92 385,93 386,92 387,93 388,94 389,93 390,92 391,93 392,92 393,93 394,94 395,95 396,96 397,97 398,96 399,95 400,200 " style="fill:rgb(145,85,97);stroke:rgb(45,0,0)"></polygon><polygon points="0,200 0,100 1,101 2,102 3,101 4,102 5,101 6,100 7,99 8,100 9,101 10,100 11,101 12,102 13,103 14,102 15,101 16,100 17,101 18,100 19,99 20,98 21,97 22,96 23,95 24,96 25,95 26,94 27,95 28,94 29,93 30,94 31,95 32,96 33,95 34,94 35,93 36,92 37,91 38,92 39,91 40,90 41,89 42,90 43,89 44,88 45,87 46,86 47,85 48,84 49,85 50,84 51,83 52,82 53,83 54,84 55,83 56,84 57,83 58,82 59,83 60,82 61,83 62,84 63,83 64,84 65,83 66,82 67,83 68,84 69,85 70,84 71,83 72,82 73,81 74,82 75,83 76,84 77,83 78,84 79,83 80,82 81,83 82,84 83,83 84,82 85,81 86,80 87,81 88,82 89,81 90,82 91,81 92,82 93,83 94,84 95,83 96,84 97,83 98,84 99,85 100,86 101,87 102,86 103,87 104,86 105,85 106,86 107,85 108,84 109,83 110,84 111,83 112,82 113,81 114,82 115,81 116,80 117,81 118,82 119,81 120,82 121,83 122,84 123,85 124,86 125,87 126,86 127,87 128,88 129,89 130,88 131,87 132,88 133,87 134,86 135,85 136,84 137,83 138,82 139,81 140,82 141,83 142,84 143,85 144,84 145,85 146,84 147,85 148,84 149,83 150,84 151,83 152,82 153,83 154,84 155,85 156,84 157,85 158,84 159,83 160,84 161,85 162,84 163,85 164,86 165,85 166,84 167,85 168,84 169,83 170,82 171,81 172,82 173,83 174,82 175,81 176,82 177,83 178,84 179,85 180,84 181,83 182,82 183,83 184,84 185,85 186,84 187,83 188,84 189,85 190,84 191,83 192,84 193,83 194,84 195,85 196,86 197,85 198,84 199,83 200,84 201,85 202,84 203,85 204,84 205,85 206,84 207,85 208,84 209,83 210,82 211,83 212,82 213,81 214,82 215,83 216,82 217,81 218,80 219,79 220,80 221,79 222,80 223,81 224,80 225,81 226,80 227,79 228,78 229,79 230,80 231,79 232,80 233,79 234,80 235,81 236,80 237,79 238,80 239,79 240,80 241,79 242,80 243,79 244,78 245,77 246,76 247,77 248,78 249,77 250,78 251,77 252,76 253,77 254,78 255,77 256,76 257,77 258,78 259,77 260,78 261,79 262,78 263,79 264,80 265,81 266,82 267,81 268,80 269,79 270,78 271,77 272,76 273,77 274,76 275,75 276,76 277,75 278,76 279,75 280,74 281,75 282,74 283,75 284,74 285,75 286,74 287,73 288,72 289,71 290,70 291,69 292,68 293,69 294,70 295,69 296,68 297,67 298,66 299,65 300,66 301,67 302,66 303,65 304,64 305,63 306,64 307,65 308,66 309,67 310,68 311,67 312,68 313,69 314,68 315,69 316,68 317,69 318,68 319,69 320,68 321,67 322,68 323,69 324,70 325,71 326,70 327,69 328,68 329,67 330,66 331,65 332,66 333,65 334,66 335,65 336,64 337,63 338,62 339,63 340,64 341,65 342,66 343,65 344,64 345,65 346,66 347,65 348,64 349,63 350,62 351,63 352,62 353,63 354,62 355,63 356,64 357,65 358,64 359,65 360,66 361,65 362,64 363,65 364,66 365,67 366,66 367,65 368,64 369,65 370,64 371,65 372,64 373,65 374,64 375,63 376,62 377,61 378,62 379,63 380,64 381,65 382,66 383,65 384,64 385,63 386,64 387,63 388,64 389,65 390,64 391,65 392,64 393,63 394,64 395,65 396,64 397,63 398,64 399,65 400,200 " style="fill:rgb(25,160,56);stroke:rgb(0,60,0)"></polygon><polygon points="0,200 0,100 1,99 2,98 3,97 4,96 5,97 6,96 7,97 8,96 9,95 10,94 11,93 12,94 13,93 14,92 15,93 16,94 17,93 18,94 19,93 20,92 21,93 22,92 23,93 24,94 25,93 26,94 27,93 28,92 29,93 30,94 31,93 32,92 33,93 34,92 35,93 36,94 37,95 38,94 39,93 40,94 41,93 42,92 43,93 44,94 45,93 46,92 47,91 48,92 49,93 50,94 51,93 52,94 53,93 54,94 55,95 56,96 57,97 58,96 59,95 60,96 61,95 62,94 63,93 64,92 65,93 66,94 67,95 68,94 69,95 70,96 71,95 72,94 73,93 74,94 75,93 76,92 77,93 78,92 79,91 80,90 81,91 82,90 83,91 84,92 85,93 86,92 87,91 88,92 89,93 90,94 91,93 92,92 93,93 94,92 95,93 96,94 97,95 98,94 99,95 100,94 101,93 102,94 103,93 104,94 105,95 106,96 107,95 108,96 109,97 110,96 111,95 112,94 113,95 114,94 115,95 116,96 117,95 118,96 119,95 120,94 121,95 122,96 123,95 124,94 125,93 126,92 127,93 128,94 129,93 130,92 131,91 132,92 133,91 134,90 135,89 136,88 137,87 138,88 139,89 140,88 141,89 142,90 143,91 144,90 145,91 146,92 147,93 148,94 149,95 150,94 151,95 152,96 153,95 154,94 155,93 156,92 157,91 158,90 159,91 160,90 161,89 162,90 163,89 164,90 165,89 166,88 167,87 168,86 169,87 170,86 171,85 172,86 173,87 174,88 175,89 176,90 177,89 178,88 179,87 180,88 181,89 182,88 183,89 184,90 185,89 186,90 187,89 188,88 189,87 190,86 191,85 192,86 193,85 194,86 195,85 196,84 197,83 198,82 199,83 200,82 201,81 202,80 203,79 204,78 205,79 206,80 207,81 208,82 209,81 210,80 211,79 212,78 213,79 214,78 215,79 216,78 217,77 218,78 219,77 220,76 221,75 222,74 223,73 224,72 225,73 226,74 227,75 228,76 229,75 230,76 231,75 232,74 233,73 234,74 235,75 236,76 237,77 238,76 239,77 240,76 241,77 242,78 243,79 244,78 245,79 246,78 247,77 248,76 249,75 250,74 251,73 252,74 253,73 254,72 255,73 256,74 257,75 258,74 259,75 260,76 261,77 262,78 263,79 264,78 265,77 266,76 267,77 268,76 269,77 270,76 271,77 272,78 273,77 274,76 275,75 276,74 277,75 278,74 279,75 280,76 281,75 282,74 283,75 284,74 285,75 286,74 287,73 288,72 289,71 290,70 291,69 292,68 293,67 294,68 295,67 296,68 297,67 298,66 299,67 300,66 301,67 302,68 303,69 304,70 305,69 306,68 307,67 308,68 309,67 310,68 311,67 312,66 313,67 314,66 315,67 316,68 317,67 318,68 319,67 320,68 321,69 322,70 323,69 324,68 325,69 326,68 327,67 328,68 329,67 330,68 331,69 332,70 333,69 334,68 335,69 336,68 337,69 338,68 339,69 340,70 341,69 342,68 343,69 344,68 345,67 346,66 347,65 348,64 349,65 350,66 351,67 352,66 353,65 354,64 355,63 356,62 357,61 358,60 359,59 360,60 361,61 362,62 363,63 364,62 365,61 366,60 367,61 368,60 369,61 370,62 371,63 372,62 373,61 374,62 375,63 376,64 377,63 378,62 379,63 380,62 381,61 382,60 383,61 384,60 385,61 386,60 387,61 388,62 389,63 390,64 391,63 392,62 393,63 394,64 395,65 396,66 397,65 398,66 399,65 400,200 " style="fill:rgb(11,6,175);stroke:rgb(0,0,75)"></polygon><polygon points="0,200 0,100 1,101 2,102 3,101 4,100 5,99 6,100 7,99 8,100 9,101 10,100 11,101 12,102 13,103 14,102 15,103 16,104 17,105 18,104 19,105 20,104 21,103 22,104 23,103 24,104 25,103 26,102 27,103 28,102 29,103 30,102 31,103 32,102 33,101 34,102 35,101 36,102 37,103 38,104 39,103 40,102 41,101 42,100 43,101 44,102 45,101 46,102 47,103 48,104 49,105 50,106 51,107 52,108 53,109 54,108 55,107 56,108 57,109 58,108 59,109 60,110 61,111 62,110 63,111 64,110 65,111 66,110 67,109 68,108 69,107 70,106 71,105 72,104 73,103 74,102 75,101 76,102 77,103 78,102 79,103 80,104 81,105 82,106 83,105 84,104 85,103 86,102 87,101 88,100 89,99 90,98 91,99 92,98 93,99 94,100 95,99 96,100 97,99 98,100 99,99 100,100 101,99 102,100 103,101 104,100 105,101 106,100 107,99 108,100 109,99 110,98 111,99 112,100 113,101 114,100 115,99 116,100 117,99 118,100 119,99 120,98 121,99 122,98 123,99 124,98 125,99 126,98 127,99 128,98 129,99 130,98 131,97 132,96 133,95 134,96 135,97 136,98 137,99 138,100 139,99 140,100 141,101 142,102 143,101 144,102 145,101 146,100 147,99 148,98 149,99 150,98 151,97 152,96 153,97 154,96 155,97 156,98 157,99 158,98 159,97 160,96 161,95 162,96 163,97 164,98 165,99 166,98 167,99 168,100 169,101 170,100 171,101 172,102 173,101 174,100 175,101 176,102 177,103 178,102 179,103 180,102 181,103 182,102 183,103 184,104 185,103 186,104 187,105 188,104 189,103 190,104 191,105 192,106 193,105 194,104 195,103 196,102 197,103 198,104 199,103 200,104 201,103 202,104 203,105 204,104 205,105 206,104 207,105 208,106 209,105 210,106 211,107 212,106 213,107 214,108 215,107 216,108 217,109 218,110 219,111 220,112 221,113 222,114 223,115 224,116 225,117 226,118 227,119 228,118 229,117 230,116 231,115 232,116 233,115 234,114 235,115 236,116 237,117 238,118 239,119 240,118 241,119 242,120 243,119 244,118 245,117 246,118 247,119 248,118 249,117 250,118 251,117 252,116 253,115 254,116 255,117 256,118 257,117 258,116 259,115 260,116 261,115 262,116 263,117 264,118 265,119 266,118 267,119 268,118 269,117 270,118 271,117 272,116 273,115 274,114 275,115 276,114 277,113 278,114 279,113 280,114 281,115 282,116 283,117 284,116 285,117 286,116 287,115 288,114 289,113 290,112 291,111 292,110 293,109 294,108 295,107 296,106 297,105 298,104 299,105 300,106 301,107 302,106 303,107 304,106 305,107 306,108 307,107 308,108 309,109 310,108 311,107 312,106 313,105 314,106 315,105 316,104 317,105 318,104 319,103 320,102 321,103 322,104 323,103 324,104 325,105 326,106 327,107 328,108 329,107 330,106 331,107 332,108 333,109 334,110 335,109 336,108 337,107 338,108 339,109 340,108 341,107 342,106 343,105 344,106 345,107 346,108 347,109 348,110 349,111 350,110 351,111 352,112 353,113 354,112 355,111 356,110 357,111 358,110 359,109 360,108 361,109 362,108 363,109 364,108 365,107 366,108 367,109 368,108 369,107 370,106 371,105 372,106 373,107 374,108 375,109 376,108 377,107 378,108 379,109 380,110 381,111 382,110 383,111 384,110 385,111 386,110 387,109 388,110 389,111 390,110 391,111 392,112 393,113 394,114 395,115 396,116 397,115 398,114 399,115 400,200 " style="fill:rgb(47,137,7);stroke:rgb(0,37,0)"></polygon><polygon points="0,200 0,100 1,99 2,98 3,97 4,96 5,97 6,96 7,97 8,96 9,95 10,96 11,95 12,96 13,95 14,94 15,95 16,94 17,93 18,94 19,95 20,94 21,95 22,96 23,95 24,94 25,95 26,96 27,97 28,98 29,97 30,98 31,97 32,96 33,95 34,96 35,97 36,96 37,95 38,96 39,95 40,96 41,95 42,94 43,95 44,94 45,95 46,94 47,95 48,94 49,95 50,96 51,97 52,98 53,99 54,98 55,99 56,98 57,97 58,96 59,97 60,98 61,97 62,98 63,99 64,98 65,97 66,96 67,97 68,96 69,95 70,96 71,95 72,96 73,95 74,96 75,95 76,94 77,95 78,96 79,97 80,96 81,97 82,96 83,97 84,98 85,97 86,96 87,95 88,96 89,95 90,94 91,93 92,94 93,95 94,94 95,93 96,94 97,93 98,94 99,95 100,94 101,95 102,96 103,95 104,94 105,95 106,94 107,95 108,94 109,95 110,96 111,95 112,94 113,93 114,94 115,93 116,92 117,93 118,94 119,93 120,92 121,91 122,92 123,91 124,90 125,91 126,90 127,91 128,90 129,89 130,90 131,89 132,90 133,89 134,88 135,87 136,86 137,87 138,88 139,87 140,86 141,87 142,88 143,87 144,88 145,89 146,90 147,89 148,90 149,91 150,90 151,89 152,88 153,89 154,88 155,87 156,88 157,87 158,88 159,87 160,88 161,87 162,88 163,89 164,90 165,89 166,88 167,87 168,86 169,85 170,86 171,85 172,84 173,83 174,82 175,83 176,82 177,83 178,82 179,81 180,82 181,83 182,82 183,81 184,82 185,83 186,82 187,81 188,80 189,81 190,80 191,79 192,78 193,77 194,78 195,79 196,78 197,79 198,78 199,77 200,76 201,77 202,78 203,77 204,76 205,77 206,78 207,77 208,78 209,77 210,76 211,75 212,74 213,75 214,76 215,75 216,74 217,73 218,74 219,73 220,74 221,75 222,74 223,75 224,76 225,75 226,76 227,77 228,78 229,79 230,80 231,79 232,80 233,81 234,80 235,79 236,78 237,77 238,76 239,77 240,76 241,75 242,76 243,75 244,74 245,73 246,74 247,75 248,76 249,77 250,78 251,77 252,78 253,77 254,78 255,79 256,78 257,77 258,76 259,77 260,78 261,79 262,80 263,79 264,78 265,77 266,78 267,77 268,76 269,77 270,78 271,77 272,76 273,77 274,76 275,75 276,76 277,75 278,76 279,75 280,74 281,73 282,74 283,73 284,72 285,73 286,72 287,73 288,74 289,75 290,74 291,75 292,74 293,75 294,74 295,75 296,74 297,75 298,76 299,77 300,78 301,79 302,80 303,81 304,80 305,79 306,78 307,77 308,76 309,77 310,76 311,77 312,76 313,77 314,78 315,77 316,78 317,79 318,80 319,79 320,80 321,79 322,78 323,77 324,76 325,77 326,76 327,77 328,76 329,75 330,76 331,75 332,76 333,77 334,76 335,75 336,74 337,73 338,74 339,73 340,72 341,71 342,70 343,69 344,68 345,67 346,68 347,69 348,70 349,69 350,68 351,67 352,66 353,67 354,68 355,69 356,68 357,69 358,68 359,69 360,70 361,71 362,72 363,71 364,72 365,71 366,72 367,73 368,72 369,73 370,72 371,73 372,72 373,71 374,72 375,71 376,72 377,73 378,74 379,75 380,74 381,73 382,72 383,73 384,74 385,73 386,74 387,73 388,74 389,75 390,76 391,77 392,76 393,75 394,76 395,75 396,76 397,77 398,78 399,79 400,200 " style="fill:rgb(226,153,33);stroke:rgb(126,53,0)"></polygon><polygon points="0,200 0,100 1,99 2,100 3,99 4,98 5,97 6,96 7,97 8,98 9,97 10,98 11,97 12,96 13,95 14,94 15,93 16,94 17,95 18,96 19,97 20,98 21,99 22,100 23,99 24,100 25,101 26,102 27,101 28,100 29,99 30,98 31,97 32,96 33,95 34,96 35,95 36,94 37,93 38,92 39,93 40,92 41,91 42,90 43,89 44,88 45,89 46,88 47,89 48,90 49,89 50,88 51,89 52,90 53,89 54,88 55,89 56,88 57,87 58,88 59,87 60,88 61,89 62,90 63,89 64,90 65,91 66,92 67,93 68,92 69,91 70,90 71,89 72,88 73,89 74,88 75,87 76,88 77,87 78,86 79,87 80,86 81,87 82,86 83,85 84,86 85,85 86,84 87,83 88,84 89,85 90,86 91,85 92,86 93,85 94,86 95,85 96,86 97,87 98,86 99,87 100,88 101,87 102,86 103,85 104,86 105,87 106,88 107,87 108,86 109,87 110,88 111,87 112,88 113,89 114,88 115,87 116,88 117,89 118,90 119,89 120,90 121,91 122,92 123,91 124,90 125,89 126,88 127,89 128,88 129,89 130,88 131,89 132,88 133,89 134,88 135,87 136,88 137,87 138,86 139,85 140,86 141,85 142,86 143,85 144,86 145,85 146,86 147,87 148,86 149,85 150,86 151,87 152,86 153,85 154,84 155,83 156,82 157,81 158,82 159,83 160,84 161,83 162,82 163,81 164,82 165,83 166,84 167,85 168,86 169,87 170,88 171,87 172,86 173,85 174,84 175,83 176,82 177,83 178,84 179,85 180,84 181,83 182,84 183,85 184,84 185,83 186,84 187,83 188,82 189,81 190,82 191,81 192,82 193,81 194,80 195,79 196,78 197,77 198,78 199,79 200,78 201,79 202,78 203,79 204,78 205,79 206,80 207,81 208,80 209,79 210,78 211,79 212,78 213,79 214,78 215,79 216,78 217,79 218,78 219,77 220,78 221,77 222,76 223,75 224,74 225,75 226,74 227,75 228,74 229,75 230,76 231,75 232,76 233,75 234,76 235,77 236,76 237,75 238,76 239,77 240,76 241,77 242,78 243,77 244,76 245,77 246,76 247,75 248,76 249,75 250,76 251,75 252,76 253,77 254,78 255,77 256,76 257,77 258,78 259,77 260,76 261,77 262,76 263,75 264,74 265,73 266,72 267,71 268,72 269,73 270,72 271,71 272,72 273,73 274,72 275,71 276,70 277,71 278,70 279,69 280,70 281,69 282,70 283,71 284,70 285,69 286,70 287,71 288,72 289,73 290,72 291,71 292,70 293,69 294,68 295,67 296,68 297,67 298,68 299,69 300,70 301,69 302,68 303,69 304,70 305,71 306,72 307,71 308,70 309,69 310,68 311,69 312,68 313,69 314,70 315,71 316,70 317,71 318,70 319,71 320,70 321,69 322,70 323,71 324,70 325,71 326,72 327,73 328,74 329,75 330,76 331,77 332,76 333,77 334,76 335,75 336,74 337,75 338,74 339,75 340,74 341,73 342,72 343,71 344,72 345,71 346,72 347,73 348,72 349,71 350,70 351,71 352,70 353,69 354,68 355,69 356,70 357,69 358,68 359,69 360,68 361,69 362,68 363,67 364,66 365,65 366,66 367,67 368,68 369,69 370,70 371,71 372,70 373,71 374,70 375,69 376,70 377,71 378,72 379,71 380,72 381,71 382,70 383,71 384,72 385,71 386,72 387,73 388,72 389,73 390,72 391,73 392,74 393,73 394,72 395,71 396,70 397,71 398,72 399,71 400,200 " style="fill:rgb(121,240,204);stroke:rgb(21,140,104)"></polygon><polygon points="0,200 0,100 1,101 2,102 3,101 4,102 5,101 6,100 7,99 8,98 9,97 10,96 11,95 12,96 13,95 14,96 15,95 16,94 17,95 18,96 19,97 20,96 21,95 22,96 23,95 24,94 25,95 26,96 27,95 28,96 29,95 30,96 31,95 32,94 33,95 34,96 35,95 36,96 37,95 38,96 39,97 40,98 41,99 42,98 43,97 44,96 45,97 46,98 47,99 48,98 49,97 50,98 51,99 52,98 53,97 54,96 55,97 56,98 57,99 58,98 59,99 60,98 61,97 62,98 63,99 64,98 65,99 66,98 67,99 68,100 69,99 70,98 71,97 72,96 73,95 74,96 75,95 76,96 77,95 78,94 79,95 80,96 81,95 82,94 83,95 84,96 85,95 86,94 87,95 88,96 89,95 90,96 91,97 92,96 93,95 94,96 95,95 96,96 97,97 98,98 99,99 100,98 101,99 102,100 103,101 104,102 105,101 106,102 107,101 108,102 109,101 110,102 111,101 112,100 113,99 114,98 115,99 116,100 117,101 118,100 119,101 120,102 121,103 122,102 123,101 124,100 125,101 126,100 127,99 128,100 129,101 130,100 131,99 132,98 133,99 134,100 135,101 136,102 137,103 138,102 139,101 140,100 141,99 142,98 143,97 144,96 145,95 146,96 147,97 148,98 149,97 150,96 151,95 152,96 153,97 154,98 155,97 156,96 157,97 158,98 159,99 160,100 161,101 162,102 163,103 164,104 165,103 166,102 167,101 168,102 169,101 170,102 171,103 172,102 173,103 174,104 175,103 176,104 177,103 178,104 179,105 180,104 181,103 182,102 183,101 184,102 185,101 186,100 187,99 188,98 189,97 190,96 191,97 192,98 193,99 194,100 195,101 196,100 197,101 198,102 199,103 200,102 201,101 202,102 203,103 204,104 205,105 206,104 207,105 208,106 209,107 210,108 211,109 212,110 213,111 214,110 215,111 216,110 217,111 218,112 219,113 220,114 221,115 222,114 223,115 224,116 225,117 226,116 227,115 228,114 229,115 230,114 231,115 232,116 233,117 234,116 235,117 236,116 237,115 238,116 239,117 240,118 241,117 242,116 243,117 244,116 245,115 246,114 247,115 248,116 249,115 250,114 251,115 252,116 253,115 254,116 255,117 256,118 257,117 258,118 259,119 260,120 261,119 262,120 263,119 264,120 265,121 266,120 267,121 268,120 269,119 270,118 271,117 272,116 273,117 274,116 275,115 276,116 277,115 278,114 279,115 280,114 281,115 282,114 283,113 284,114 285,115 286,116 287,117 288,118 289,117 290,118 291,117 292,118 293,119 294,120 295,119 296,120 297,121 298,120 299,121 300,122 301,121 302,120 303,121 304,120 305,119 306,120 307,121 308,122 309,123 310,122 311,121 312,122 313,123 314,124 315,125 316,124 317,123 318,124 319,125 320,126 321,125 322,124 323,125 324,126 325,125 326,126 327,125 328,126 329,127 330,128 331,129 332,128 333,129 334,130 335,131 336,132 337,131 338,130 339,129 340,128 341,129 342,130 343,129 344,128 345,129 346,128 347,129 348,128 349,129 350,128 351,129 352,128 353,127 354,126 355,127 356,126 357,127 358,126 359,127 360,128 361,127 362,128 363,129 364,130 365,131 366,130 367,129 368,128 369,127 370,126 371,127 372,128 373,129 374,128 375,127 376,128 377,127 378,128 379,127 380,128 381,127 382,126 383,127 384,126 385,125 386,124 387,125 388,124 389,125 390,124 391,125 392,124 393,125 394,124 395,125 396,124 397,125 398,124 399,123 400,200 " style="fill:rgb(242,191,13);stroke:rgb(142,91,0)"></polygon><polygon points="0,200 0,100 1,99 2,100 3,101 4,102 5,101 6,102 7,101 8,100 9,99 10,98 11,99 12,98 13,97 14,96 15,97 16,96 17,95 18,96 19,97 20,96 21,95 22,96 23,97 24,96 25,95 26,96 27,97 28,96 29,97 30,96 31,95 32,94 33,95 34,96 35,95 36,94 37,93 38,94 39,95 40,94 41,93 42,92 43,91 44,90 45,89 46,88 47,89 48,88 49,87 50,88 51,89 52,90 53,89 54,90 55,91 56,90 57,89 58,90 59,91 60,92 61,93 62,94 63,95 64,96 65,95 66,96 67,95 68,94 69,95 70,96 71,95 72,96 73,97 74,96 75,95 76,94 77,93 78,92 79,91 80,92 81,91 82,92 83,93 84,94 85,95 86,94 87,93 88,92 89,93 90,94 91,95 92,96 93,97 94,96 95,95 96,96 97,97 98,98 99,97 100,96 101,97 102,98 103,99 104,100 105,101 106,100 107,101 108,102 109,101 110,102 111,103 112,104 113,105 114,104 115,103 116,102 117,103 118,104 119,103 120,104 121,105 122,106 123,107 124,108 125,109 126,110 127,111 128,110 129,109 130,110 131,109 132,108 133,109 134,108 135,109 136,108 137,109 138,110 139,111 140,112 141,111 142,112 143,111 144,112 145,111 146,112 147,111 148,110 149,109 150,108 151,107 152,108 153,107 154,108 155,109 156,110 157,109 158,108 159,107 160,106 161,105 162,104 163,103 164,104 165,103 166,102 167,101 168,102 169,101 170,100 171,101 172,100 173,99 174,100 175,101 176,100 177,101 178,100 179,99 180,98 181,97 182,98 183,99 184,98 185,97 186,96 187,97 188,98 189,99 190,98 191,99 192,98 193,99 194,98 195,99 196,100 197,99 198,100 199,101 200,102 201,101 202,102 203,101 204,102 205,103 206,104 207,103 208,102 209,101 210,102 211,101 212,102 213,101 214,102 215,103 216,102 217,101 218,100 219,101 220,100 221,99 222,98 223,99 224,100 225,99 226,98 227,97 228,98 229,99 230,98 231,99 232,98 233,99 234,98 235,97 236,96 237,97 238,98 239,99 240,98 241,97 242,96 243,95 244,96 245,97 246,96 247,95 248,94 249,95 250,96 251,97 252,98 253,99 254,98 255,97 256,98 257,97 258,98 259,99 260,100 261,99 262,98 263,97 264,96 265,95 266,94 267,93 268,94 269,95 270,96 271,95 272,94 273,93 274,94 275,93 276,92 277,91 278,92 279,93 280,94 281,95 282,94 283,93 284,92 285,91 286,90 287,89 288,88 289,89 290,90 291,89 292,90 293,89 294,90 295,89 296,88 297,89 298,90 299,89 300,88 301,89 302,90 303,89 304,88 305,87 306,86 307,85 308,86 309,87 310,88 311,89 312,90 313,91 314,90 315,89 316,90 317,91 318,92 319,91 320,92 321,93 322,92 323,91 324,92 325,93 326,92 327,93 328,94 329,93 330,92 331,91 332,92 333,93 334,94 335,93 336,94 337,93 338,94 339,93 340,94 341,93 342,92 343,91 344,92 345,93 346,94 347,93 348,92 349,91 350,90 351,91 352,90 353,89 354,88 355,89 356,90 357,89 358,90 359,89 360,90 361,91 362,90 363,91 364,90 365,89 366,88 367,87 368,86 369,87 370,88 371,89 372,88 373,87 374,86 375,85 376,84 377,85 378,84 379,85 380,86 381,87 382,88 383,89 384,90 385,91 386,90 387,89 388,90 389,91 390,90 391,89 392,88 393,87 394,88 395,87 396,86 397,87 398,86 399,85 400,200 " style="fill:rgb(142,251,135);stroke:rgb(42,151,35)"></polygon></svg>